<svg xmlns="http://www.w3.org/2000/svg" viewBox="0 0 110 110">
  <title>Nicnosis</title>
  <g id="WORDMARKS">
    <g id="Color_Logo" data-name="Color Logo">
      <g id="Logo_Shape" data-name="Logo Shape">
        <path d="M86.2,55A35.7,35.7,0,0,0,50.5,19.3V10.4a44.6,44.6,0,1,1,0,89.2V90.7A35.7,35.7,0,0,0,86.2,55" fill="#231f20"/>
        <path d="M68.4,55A17.9,17.9,0,0,0,50.5,37.1V28.2a26.8,26.8,0,0,1,0,53.6V72.9A17.9,17.9,0,0,0,68.4,55" fill="#231f20"/>
        <path d="M59.5,55a8.9,8.9,0,0,1-9,8.9V46.1a8.9,8.9,0,0,1,9,8.9" fill="#231f20"/>
        <path d="M23.8,55A26.7,26.7,0,0,0,50.5,81.8v8.9a35.7,35.7,0,0,1,0-71.4v8.9A26.7,26.7,0,0,0,23.8,55" fill="#231f20"/>
        <path d="M41.6,55a8.9,8.9,0,0,0,8.9,8.9v9a17.9,17.9,0,0,1,0-35.8v9A8.9,8.9,0,0,0,41.6,55" fill="#231f20"/>
      </g>
    </g>
  </g>
</svg>
